<svg xmlns="http://www.w3.org/2000/svg" width="25" height="25" viewBox="0 0 25 25"><path d="M83.089,90.614h-1.07v-.008a1.369,1.369,0,0,0,0,2.737h1.088a1.361,1.361,0,0,0,1.351-1.369A1.379,1.379,0,0,0,83.089,90.614Z" transform="translate(-70.04 -78.102)"/><path d="M83.089,93.854h-1.07a1.369,1.369,0,0,0,0,2.737h1.087a1.361,1.361,0,0,0,1.353-1.368A1.382,1.382,0,0,0,83.089,93.854Z" transform="translate(-70.04 -76.122)"/><path d="M85.722,93.344H86.8a1.361,1.361,0,0,0,1.351-1.369V91.95a1.349,1.349,0,0,0-1.36-1.336h-1.07v-.008c-.03,0-.06,0-.092,0a1.369,1.369,0,0,0,.092,2.737Z" transform="translate(-67.756 -78.103)"/><path d="M79.4,93.854h-1.07a1.369,1.369,0,0,0,0,2.737h1.087a1.361,1.361,0,0,0,1.353-1.368v-.041A1.349,1.349,0,0,0,79.4,93.854Z" transform="translate(-72.368 -76.122)"/><path d="M79.4,90.614h-1.07v-.008a1.369,1.369,0,0,0,0,2.737H79.42a1.361,1.361,0,0,0,1.351-1.369v-.035A1.348,1.348,0,0,0,79.4,90.614Z" transform="translate(-72.368 -78.102)"/><path d="M86.792,93.854h-1.07c-.03,0-.06,0-.092,0a1.369,1.369,0,0,0,.092,2.737H86.8a1.361,1.361,0,0,0,1.353-1.368v-.035A1.348,1.348,0,0,0,86.792,93.854Z" transform="translate(-67.756 -76.122)"/><path d="M94.466,84.84H92.873v-.973a1.032,1.032,0,0,0-1.035-1.026.12.12,0,0,0-.034,0,1.012,1.012,0,0,0-1,1.026v.973H82.523v-.973a1.032,1.032,0,0,0-1.035-1.026.109.109,0,0,0-.032,0,1.013,1.013,0,0,0-1,1.026v.973H78.844A4.668,4.668,0,0,0,74.163,89.5v13.683a4.688,4.688,0,0,0,4.7,4.658H94.482a4.672,4.672,0,0,0,4.681-4.658V89.5A4.688,4.688,0,0,0,94.466,84.84ZM76.233,89.493v0a2.626,2.626,0,0,1,2.628-2.628h1.593v.973a1.031,1.031,0,0,0,1.035,1.026h.029a1.017,1.017,0,0,0,1.006-1.026v-.973H90.8v.973a1.031,1.031,0,0,0,1.035,1.026h.029a1.017,1.017,0,0,0,1.006-1.026v-.969h1.593a2.63,2.63,0,0,1,2.628,2.626v1.343H76.233Zm18.233,16.3H78.86a2.651,2.651,0,0,1-2.655-2.633V92.868H97.093v10.323A2.614,2.614,0,0,1,94.466,105.79Z" transform="translate(-74.163 -82.839)"/></svg>