<svg xmlns="http://www.w3.org/2000/svg" width="45" height="45" viewBox="0 0 45 45"><g transform="translate(-57 -735)"><path d="M76.713,40.977a2.973,2.973,0,0,0,3.026,2.9H97.525a2.928,2.928,0,0,0,2.995-2.9V29.648H76.713Zm18.028-8.693h1.3A1.6,1.6,0,0,1,97.7,33.877a1.625,1.625,0,0,1-1.663,1.595h-1.3a1.6,1.6,0,1,1,0-3.187Zm0,5.708h1.3A1.606,1.606,0,0,1,97.7,39.587a1.624,1.624,0,0,1-1.663,1.593h-1.3a1.6,1.6,0,1,1,0-3.187ZM88,32.284h1.3a1.644,1.644,0,0,1,1.664,1.593A1.625,1.625,0,0,1,89.3,35.472H88a1.6,1.6,0,1,1,0-3.187Zm0,5.708h1.3a1.646,1.646,0,0,1,1.664,1.595A1.624,1.624,0,0,1,89.3,41.18H88a1.6,1.6,0,1,1,0-3.187ZM81.22,32.284h1.3a1.606,1.606,0,0,1,1.664,1.593,1.625,1.625,0,0,1-1.664,1.595h-1.3a1.6,1.6,0,1,1,0-3.187Zm0,5.708h1.3a1.607,1.607,0,0,1,1.664,1.595A1.624,1.624,0,0,1,82.52,41.18h-1.3a1.6,1.6,0,1,1,0-3.187Z" transform="translate(-9.13 725.277)"/><path d="M97.511,25.894H95.7v1.072a1.139,1.139,0,0,1-1.18,1.13,1.155,1.155,0,0,1-1.18-1.13V25.894H83.9v1.072a1.139,1.139,0,0,1-1.18,1.13,1.155,1.155,0,0,1-1.18-1.13V25.894H79.725a2.945,2.945,0,0,0-2.995,2.9v1.478h23.776V28.791A2.946,2.946,0,0,0,97.511,25.894Z" transform="translate(-9.117 722.096)"/><path d="M93.2,18.695a22.5,22.5,0,1,0,22.5,22.5A22.5,22.5,0,0,0,93.2,18.695Zm13.959,31.333a5.237,5.237,0,0,1-5.245,5.245H84.488a5.255,5.255,0,0,1-5.245-5.245V34.616a5.236,5.236,0,0,1,5.245-5.245h1.778v-1.1a1.138,1.138,0,0,1,1.156-1.156,1.157,1.157,0,0,1,1.156,1.156v1.1h9.247v-1.1a1.138,1.138,0,0,1,1.156-1.156,1.157,1.157,0,0,1,1.156,1.156v1.1h1.778a5.255,5.255,0,0,1,5.245,5.245Z" transform="translate(-13.7 716.305)"/></g></svg>