<?xml version="1.0" encoding="utf-8"?>
<!-- Generator: Adobe Illustrator 25.3.1, SVG Export Plug-In . SVG Version: 6.00 Build 0)  -->
<svg version="1.1" id="Layer_1" xmlns="http://www.w3.org/2000/svg" xmlns:xlink="http://www.w3.org/1999/xlink" x="0px" y="0px"
	 viewBox="0 0 45 45" style="enable-background:new 0 0 45 45;" xml:space="preserve">
<path d="M22.5,0C10.1,0,0,10.1,0,22.5S10.1,45,22.5,45S45,34.9,45,22.5S34.9,0,22.5,0z M22.1,39.4c-2.1,0-3.6-1.7-3.6-3.6
	s1.7-3.6,3.6-3.6c2.1,0,3.6,1.7,3.6,3.6S24,39.4,22.1,39.4z M30.5,22c-1.3,1.3-2.9,2.3-5.3,2.5v4.8h-5.9v-9c0.6,0.2,1.3,0.2,1.9,0.2
	c1.9,0,3.4-0.6,4.4-1.7c0.6-0.8,1.3-1.9,1.3-3.2s-0.4-2.1-1.1-2.7c-0.4-0.4-1.3-0.8-2.3-0.8c-1.3,0-2.1,0.6-2.3,0.8
	c-0.4,0.4-1.1,1.5-1.1,2.9h-6.3c0-2.5,1.1-4.8,2.3-6.3C17.5,8.5,19.6,7,23.6,7c2.5,0,4.8,0.4,6.7,2.3c1.3,1.3,2.5,3.4,2.5,6.5
	C32.9,18.4,32,20.3,30.5,22z"/>
</svg>
