<?xml version="1.0" encoding="utf-8"?>
<!-- Generator: Adobe Illustrator 25.2.3, SVG Export Plug-In . SVG Version: 6.00 Build 0)  -->
<svg version="1.1" id="Layer_1" xmlns="http://www.w3.org/2000/svg" xmlns:xlink="http://www.w3.org/1999/xlink" x="0px" y="0px"
	 viewBox="0 0 25 25" style="enable-background:new 0 0 25 25;" xml:space="preserve">
<path d="M12.5,25C5.6,25,0,19.4,0,12.5S5.6,0,12.5,0S25,5.6,25,12.5S19.4,25,12.5,25z M12.5,2C6.7,2,2,6.7,2,12.5
	C2,18.3,6.7,23,12.5,23C18.3,23,23,18.3,23,12.5C23,6.7,18.3,2,12.5,2z"/>
<g>
	<path d="M10.9,15.6v-4.3c0.3,0.1,0.6,0.1,0.9,0.1c0.9,0,1.6-0.3,2.1-0.8c0.3-0.4,0.6-0.9,0.6-1.5s-0.2-1-0.5-1.3
		c-0.2-0.2-0.6-0.4-1.1-0.4c-0.6,0-1,0.3-1.1,0.4c-0.2,0.2-0.5,0.7-0.5,1.4H8.3c0-1.2,0.5-2.3,1.1-3C10,5.7,11,5,12.9,5
		c1.2,0,2.3,0.2,3.2,1.1c0.6,0.6,1.2,1.6,1.2,3.1c0,1.2-0.4,2.1-1.1,2.9c-0.6,0.6-1.4,1.1-2.5,1.2v2.3H10.9z M12.2,17
		c1,0,1.7,0.8,1.7,1.7s-0.8,1.7-1.7,1.7c-1,0-1.7-0.8-1.7-1.7S11.3,17,12.2,17z"/>
</g>
</svg>
