<svg xmlns="http://www.w3.org/2000/svg" width="15" height="18.298" viewBox="0 0 15 18.298"><g transform="translate(-13.11 -5)"><path d="M20.61,5a7.509,7.509,0,0,0-7.5,7.5c0,5.04,7.014,10.5,7.313,10.735a.305.305,0,0,0,.187.063.3.3,0,0,0,.177-.057c.073-.053,7.323-5.64,7.323-10.741A7.509,7.509,0,0,0,20.61,5Zm4.743,6.7v.012a.178.178,0,0,1,0,.033.059.059,0,0,1,0,.018.15.15,0,0,1-.008.028.1.1,0,0,1-.01.02.079.079,0,0,1-.012.022.214.214,0,0,1-.014.022l-.01.012a0,0,0,0,1,0,0,.144.144,0,0,1-.026.024c-.006,0-.008.008-.014.01a.136.136,0,0,1-.037.022s0,0-.006,0a.257.257,0,0,1-.1.022h-.441v3.824a.254.254,0,0,1-.254.254H22.06a.254.254,0,0,1-.254-.254V14.364a1.2,1.2,0,1,0-2.391,0v1.415a.254.254,0,0,1-.254.254H16.816a.254.254,0,0,1-.254-.254V11.955h-.441a.257.257,0,0,1-.1-.022l0,0a.229.229,0,0,1-.043-.024l-.01-.008a.176.176,0,0,1-.028-.026s0,0,0,0,0-.006-.008-.01l-.018-.024c0-.006-.006-.014-.01-.02a.125.125,0,0,1-.01-.024.155.155,0,0,1-.008-.022.1.1,0,0,1,0-.024.137.137,0,0,1,0-.028v-.02c0-.01,0-.02,0-.03s0-.014,0-.02.006-.018.008-.028a.072.072,0,0,1,.008-.018.168.168,0,0,1,.014-.026c0-.006.006-.01.008-.016a.223.223,0,0,1,.02-.022.047.047,0,0,1,.014-.014l.006-.008.693-.61,3.8-3.34.008-.006.02-.014a.044.044,0,0,0,.01-.008l.012-.006.02-.008.012-.006a.029.029,0,0,0,.012,0,.09.09,0,0,1,.02,0,.026.026,0,0,1,.012,0,.045.045,0,0,1,.016,0,.056.056,0,0,1,.018,0h.012a.056.056,0,0,1,.018,0,.045.045,0,0,1,.016,0,.026.026,0,0,1,.012,0,.09.09,0,0,1,.02,0,.029.029,0,0,0,.014,0l.01.006.02.008.012.006s0,0,.006,0,0,0,0,0a.084.084,0,0,1,.022.014l.008.006L24.572,10.9l.7.612s0,.006.008.008l.01.012a.14.14,0,0,1,.022.026.045.045,0,0,0,.006.01l.018.033s0,.008,0,.012a.222.222,0,0,1,.01.035.035.035,0,0,1,0,.014.224.224,0,0,1,0,.037Z" transform="translate(0 0)"/></g></svg>