<svg id="Component_11_4" data-name="Component 11 – 4" xmlns="http://www.w3.org/2000/svg" width="25" height="25" viewBox="0 0 25 25">
  <path id="Path_31" data-name="Path 31" d="M76.713,36.085a1.652,1.652,0,0,0,1.647,1.647h9.681a1.628,1.628,0,0,0,1.63-1.647V29.648H76.713Zm9.813-4.939h.708a.892.892,0,0,1,.9.9.9.9,0,0,1-.9.906h-.708a.906.906,0,1,1,0-1.811Zm0,3.243h.708a.892.892,0,0,1,.9.906.9.9,0,0,1-.9.905h-.708a.906.906,0,1,1,0-1.811Zm-3.672-3.243h.708a.913.913,0,0,1,.906.9.9.9,0,0,1-.906.906h-.708a.906.906,0,0,1,0-1.811Zm0,3.243h.708a.914.914,0,0,1,.906.906.9.9,0,0,1-.906.905h-.708a.906.906,0,0,1,0-1.811Zm-3.688-3.243h.708a.892.892,0,0,1,.906.9.9.9,0,0,1-.906.906h-.708a.906.906,0,0,1,0-1.811Zm0,3.243h.708a.893.893,0,0,1,.906.906.9.9,0,0,1-.906.905h-.708a.906.906,0,0,1,0-1.811Z" transform="translate(-70.7 -18.695)"/>
  <path id="Path_32" data-name="Path 32" d="M88.041,25.894h-.988V26.5a.633.633,0,0,1-.642.642.642.642,0,0,1-.642-.642v-.609H80.632V26.5a.633.633,0,0,1-.642.642.642.642,0,0,1-.642-.642v-.609H78.36a1.637,1.637,0,0,0-1.63,1.646v.84H89.671v-.84A1.638,1.638,0,0,0,88.041,25.894Z" transform="translate(-70.7 -18.695)"/>
  <path id="Path_33" data-name="Path 33" d="M83.2,18.695a12.5,12.5,0,1,0,12.5,12.5A12.5,12.5,0,0,0,83.2,18.695ZM90.955,36.1a2.909,2.909,0,0,1-2.914,2.914H78.36A2.92,2.92,0,0,1,75.446,36.1V27.54a2.909,2.909,0,0,1,2.914-2.914h.988v-.609a.632.632,0,0,1,.642-.642.643.643,0,0,1,.642.642v.609h5.137v-.609a.632.632,0,0,1,.642-.642.643.643,0,0,1,.642.642v.609h.988a2.92,2.92,0,0,1,2.914,2.914Z" transform="translate(-70.7 -18.695)"/>
</svg>
