<svg id="Component_10_6" data-name="Component 10 – 6" xmlns="http://www.w3.org/2000/svg" width="25" height="25" viewBox="0 0 25 25">
  <path id="Path_30" data-name="Path 30" d="M39.638,17.691a12.5,12.5,0,1,0,12.5,12.5A12.5,12.5,0,0,0,39.638,17.691Zm5.406,20.254H36.36a3.722,3.722,0,0,1-3.722-3.722V23.058a.621.621,0,0,1,.621-.62H44.424a.621.621,0,0,1,.62.62v9.925H43.8V23.678H33.879V34.223a2.481,2.481,0,1,0,4.962,0,.621.621,0,0,1,.621-.62h8.684a.621.621,0,0,1,.62.62A3.721,3.721,0,0,1,45.044,37.945Zm-9.3-8.684a.62.62,0,0,1,0-1.241H40.7a.62.62,0,0,1,0,1.241Zm3.722,1.861a.62.62,0,0,1-.621.62h-3.1a.62.62,0,1,1,0-1.24h3.1A.62.62,0,0,1,39.462,31.122ZM35.74,26.78a.621.621,0,0,1,0-1.241h6.2a.621.621,0,0,1,0,1.241Z" transform="translate(-27.138 -17.691)"/>
</svg>
