<svg xmlns="http://www.w3.org/2000/svg" width="25" height="25" viewBox="0 0 25 25">
  <g id="Group_96" data-name="Group 96" transform="translate(-214.904 -210.625)">
    <path id="Path_83" data-name="Path 83" d="M227.4,224.022h-.224a1.824,1.824,0,0,0-.933,3.209l-.485,2.313a.414.414,0,0,0,.411.486h2.462a.414.414,0,0,0,.411-.486l-.485-2.276a1.83,1.83,0,0,0-1.157-3.246Z" fill="#040505"/>
    <path id="Path_84" data-name="Path 84" d="M227.39,215.411c-.107,0-.215.027-.322.027a3.448,3.448,0,0,0-3.041,3.471V220.9h6.754v-2.1A3.394,3.394,0,0,0,227.39,215.411Z" fill="#040505"/>
    <path id="Path_85" data-name="Path 85" d="M227.4,210.625a12.5,12.5,0,1,0,12.5,12.5A12.5,12.5,0,0,0,227.4,210.625Zm7.682,19.209a1.574,1.574,0,0,1-1.587,1.588h-12.19a1.573,1.573,0,0,1-1.587-1.588v-7.346a1.572,1.572,0,0,1,1.587-1.587h.135v-1.938a6.06,6.06,0,0,1,5.758-6.135h.242a6,6,0,0,1,6,5.974v2.1h.054a1.573,1.573,0,0,1,1.587,1.587Z" fill="#040505"/>
  </g>
</svg>
