<svg xmlns="http://www.w3.org/2000/svg" width="25" height="25.128" viewBox="0 0 25 25.128">
  <path id="Path_82" data-name="Path 82" d="M293.713,271.936a12.5,12.5,0,0,0-25,0c0,.022,0,.042,0,.064s0,.042,0,.064a12.5,12.5,0,0,0,25,0c0-.022,0-.043,0-.064S293.713,271.958,293.713,271.936Zm-12.527-7.816a4.329,4.329,0,1,1-4.329,4.329A4.315,4.315,0,0,1,281.186,264.12Zm6.027,16.421c-.159.11-.323.212-.487.314a10.4,10.4,0,0,1-11.026,0c-.165-.1-.329-.2-.487-.314a10.582,10.582,0,0,1-2.055-1.881,8.41,8.41,0,0,1,5.019-5.618,5.515,5.515,0,0,0,6.071,0,8.407,8.407,0,0,1,5.019,5.618A10.576,10.576,0,0,1,287.213,280.541Z" transform="translate(-268.713 -259.436)" fill="#040505"/>
</svg>
