<svg id="Component_23_2" data-name="Component 23 – 2" xmlns="http://www.w3.org/2000/svg" width="30" height="30" viewBox="0 0 30 30">
  <path fill="#BC9D78" id="Path_74" data-name="Path 74" d="M61.883,110.883a15,15,0,1,0,15,15A15,15,0,0,0,61.883,110.883Zm-8.454,23.954a.416.416,0,0,1-.5-.5l.921-4.16,3.646,3.665Zm5.053-1.983-3.646-3.665,9.232-9.279,3.648,3.665Zm12-12.058-1.818,1.826-3.648-3.665,1.558-1.566a1.609,1.609,0,0,1,2.275,0l0,0,1.628,1.635A1.254,1.254,0,0,1,70.483,120.8Z" transform="translate(-46.883 -110.883)"/>
</svg>
