<svg id="Component_22_2" data-name="Component 22 – 2" xmlns="http://www.w3.org/2000/svg" width="30" height="30" viewBox="0 0 30 30">
  <path fill="#BC9D78" id="Path_75" data-name="Path 75" d="M46.62,69.28a.689.689,0,0,0,.685-.684V62.5a.684.684,0,0,0-1.369,0v6.1A.689.689,0,0,0,46.62,69.28Z" transform="translate(-35 -47.5)"/>
  <path fill="#BC9D78" id="Path_76" data-name="Path 76" d="M53.4,69.28a.688.688,0,0,0,.684-.684V62.5a.684.684,0,0,0-1.368,0v6.1A.688.688,0,0,0,53.4,69.28Z" transform="translate(-35 -47.5)"/>
  <path fill="#BC9D78" id="Path_77" data-name="Path 77" d="M50,69.28a.688.688,0,0,0,.684-.684V62.5a.684.684,0,0,0-1.368,0v6.1A.688.688,0,0,0,50,69.28Z" transform="translate(-35 -47.5)"/>
  <path fill="#BC9D78" id="Path_78" data-name="Path 78" d="M50,47.5a15,15,0,1,0,15,15A15,15,0,0,0,50,47.5Zm6.887,23.941A1.349,1.349,0,0,1,55.54,72.66H44.46a1.332,1.332,0,0,1-1.347-1.219L41.872,58.436H58.128Zm1.241-14.374H41.872a1.347,1.347,0,1,1,0-2.695h5.433v-.685a1.342,1.342,0,0,1,1.347-1.347h2.717a1.342,1.342,0,0,1,1.348,1.347v.685h5.411a1.347,1.347,0,1,1,0,2.695Z" transform="translate(-35 -47.5)"/>
</svg>
