<svg xmlns="http://www.w3.org/2000/svg" width="24" height="24" viewBox="0 0 24 24"><path d="M136.009,55.738l-1.118-.514a.986.986,0,0,1-.51-1.239l.437-1.151a2.769,2.769,0,0,0-.33-2.6A2.8,2.8,0,0,0,132.161,49a2.728,2.728,0,0,0-1,.188l-1.146.439a.824.824,0,0,1-.344.06.964.964,0,0,1-.873-.567L128.271,48a2.809,2.809,0,0,0-2.579-1.669,2.884,2.884,0,0,0-2.622,1.688l-.523,1.117a.973.973,0,0,1-.886.576.871.871,0,0,1-.331-.06l-1.146-.439a2.838,2.838,0,0,0-3.664,3.645l.437,1.151a.986.986,0,0,1-.512,1.229l-1.116.514a2.822,2.822,0,0,0,.046,5.164l1.116.514A.985.985,0,0,1,117,62.665l-.428,1.158a2.83,2.83,0,0,0,3.658,3.646l1.146-.439a.825.825,0,0,1,.342-.06.957.957,0,0,1,.886.576l.512,1.121a2.824,2.824,0,0,0,5.15,0l.524-1.128a.971.971,0,0,1,.886-.576.869.869,0,0,1,.342.06l1.146.453a2.747,2.747,0,0,0,3.334-1.047,2.856,2.856,0,0,0,.33-2.617l-.449-1.151a.986.986,0,0,1,.51-1.229l1.118-.514v-.01a2.845,2.845,0,0,0,0-5.171Zm-.837,3.479-1.109.517a2.846,2.846,0,0,0-1.474,3.584l.437,1.151a.97.97,0,0,1-1.255,1.246l-1.146-.439a2.8,2.8,0,0,0-3.569,1.485l-.512,1.121a.966.966,0,0,1-1.762-.007l-.52-1.114a2.842,2.842,0,0,0-2.579-1.668,2.682,2.682,0,0,0-.994.187l-1.146.439a1,1,0,0,1-1.146-.357.943.943,0,0,1-.109-.889l.437-1.151a2.86,2.86,0,0,0-1.466-3.586l-1.115-.518a.978.978,0,0,1,0-1.78l1.116-.514a2.844,2.844,0,0,0,1.474-3.584l-.437-1.151a.97.97,0,0,1,1.255-1.246l1.146.439a2.794,2.794,0,0,0,3.568-1.491l.51-1.121a.983.983,0,0,1,1.783.007l.5,1.114a2.85,2.85,0,0,0,2.579,1.688,2.717,2.717,0,0,0,.993-.187l1.146-.439a.987.987,0,0,1,1.146.357.931.931,0,0,1,.109.889l-.437,1.151a2.864,2.864,0,0,0,1.474,3.575l1.116.514h-.014a.977.977,0,0,1,0,1.777Z" transform="translate(-113.668 -46.332)"/><path d="M122.038,51.85a2.817,2.817,0,1,0,2.819,2.816h0A2.817,2.817,0,0,0,122.038,51.85Z" transform="translate(-110.044 -42.676)"/></svg>