<svg xmlns="http://www.w3.org/2000/svg" width="19.675" height="24" viewBox="0 0 19.675 24"><path d="M22.947,5a9.849,9.849,0,0,0-9.837,9.837c0,6.611,9.2,13.779,9.592,14.08a.4.4,0,0,0,.245.083.388.388,0,0,0,.232-.075c.1-.069,9.605-7.4,9.605-14.088A9.849,9.849,0,0,0,22.947,5Zm6.221,8.787V13.8a.233.233,0,0,1-.005.043.078.078,0,0,1-.005.024.2.2,0,0,1-.011.037.125.125,0,0,1-.013.027.1.1,0,0,1-.016.029.281.281,0,0,1-.019.029c-.005.005-.008.011-.013.016a.006.006,0,0,1-.005.005.189.189,0,0,1-.035.032c-.008.005-.011.011-.019.013a.179.179,0,0,1-.048.029s-.005.005-.008.005a.337.337,0,0,1-.136.029h-.579v5.016a.333.333,0,0,1-.333.333H24.849a.333.333,0,0,1-.333-.333V17.283a1.568,1.568,0,0,0-3.136,0v1.856a.333.333,0,0,1-.333.333H17.971a.333.333,0,0,1-.333-.333V14.123h-.579a.337.337,0,0,1-.136-.029l0,0a.3.3,0,0,1-.056-.032s-.008-.005-.013-.011a.231.231,0,0,1-.037-.035s-.005,0-.005-.005S16.8,14,16.8,13.995l-.024-.032c-.005-.008-.008-.019-.013-.027a.163.163,0,0,1-.013-.032.2.2,0,0,1-.011-.029.134.134,0,0,1-.005-.032.18.18,0,0,1-.005-.037v-.027c0-.013,0-.027,0-.04s0-.019.005-.027.008-.024.011-.037a.1.1,0,0,1,.011-.024.22.22,0,0,1,.019-.035c0-.008.008-.013.011-.021a.293.293,0,0,1,.027-.029.062.062,0,0,1,.019-.019l.008-.011.909-.8,4.979-4.381.011-.008.027-.019a.058.058,0,0,0,.013-.011l.016-.008.027-.011.016-.008a.038.038,0,0,0,.016-.005.117.117,0,0,1,.027-.005.034.034,0,0,1,.016,0,.059.059,0,0,1,.021,0,.074.074,0,0,1,.024,0h.016a.074.074,0,0,1,.024,0,.059.059,0,0,1,.021,0,.034.034,0,0,1,.016,0,.117.117,0,0,1,.027.005.039.039,0,0,0,.019.005.058.058,0,0,0,.013.008l.027.011.016.008s.005.005.008.005,0,0,0,.005a.11.11,0,0,1,.029.019l.011.008,4.976,4.379.912.8s.005.008.011.011.008.011.013.016a.184.184,0,0,1,.029.035.058.058,0,0,0,.008.013l.024.043c0,.005,0,.011.005.016a.291.291,0,0,1,.013.045.045.045,0,0,1,0,.019.294.294,0,0,1,.005.048Z" transform="translate(-13.11 -5)"/></svg>