<svg xmlns="http://www.w3.org/2000/svg" width="25" height="25" viewBox="0 0 25 25"><path d="M275.556,142.112a12.5,12.5,0,1,0,12.5,12.5A12.5,12.5,0,0,0,275.556,142.112Zm4.146,16.922v2.273a1.674,1.674,0,0,1-.183.789,1.44,1.44,0,0,1-1.247.734c-.121,0-.243,0-.363,0h-7.295a1.912,1.912,0,0,1-.378-.038,1.443,1.443,0,0,1-1.107-1.4c-.005-.223,0-.447,0-.67V148c0-.064,0-.126,0-.19a1.4,1.4,0,0,1,.221-.756,1.435,1.435,0,0,1,.849-.615,1.921,1.921,0,0,1,.409-.044h6.453c.4,0,.807-.007,1.211,0a1.454,1.454,0,0,1,1.236.7,1.52,1.52,0,0,1,.2.8v2.916a.947.947,0,0,1-.267.646.917.917,0,0,1-1.293,0,.951.951,0,0,1-.267-.646v-2.589l-.53,0h-6.4c0,.043,0,.086,0,.13v12.66l.528,0h6.394v-2.584a.952.952,0,0,1,.268-.648.917.917,0,0,1,1.293,0,.95.95,0,0,1,.267.646Zm5.188-3.683-.221.221-1.406,1.406-.882.882a.959.959,0,0,1-.646.267.92.92,0,0,1-.646-.267.917.917,0,0,1,0-1.293l.325-.325.712-.712h-8.441a.955.955,0,0,1-.646-.267.917.917,0,0,1,0-1.293.951.951,0,0,1,.646-.267h.018c.431-.005.864,0,1.295,0h7.163l-.19-.19-.882-.882a.957.957,0,0,1-.267-.643.92.92,0,0,1,.267-.646.917.917,0,0,1,1.293,0l.325.325,1.406,1.406.882.882a.9.9,0,0,1,.247.483,1.207,1.207,0,0,1,.021.178.923.923,0,0,1-.267.646A.873.873,0,0,1,284.89,155.351Z" transform="translate(-263.056 -142.112)"/></svg>