<?xml version="1.0" encoding="utf-8"?>
<!-- Generator: Adobe Illustrator 25.2.3, SVG Export Plug-In . SVG Version: 6.00 Build 0)  -->
<svg version="1.1" id="Layer_1" xmlns="http://www.w3.org/2000/svg" xmlns:xlink="http://www.w3.org/1999/xlink" x="0px" y="0px"
	 viewBox="0 0 25 25" style="enable-background:new 0 0 25 25;" xml:space="preserve">
<style type="text/css">
	.st0{fill:#231F20;}
</style>
<g>
	<path class="st0" d="M12.5,0L12.5,0C7.1,0,2.6,4.4,2.6,9.8c0,3.1,1.5,6.5,4.5,10c1.3,1.5,2.7,3,4.3,4.3l1.1,0.9l1.1-0.9
		c1.5-1.3,3-2.7,4.3-4.3c3-3.5,4.4-6.9,4.4-10C22.4,4.4,17.9,0,12.5,0z M16.4,18.6c-1.2,1.4-2.5,2.7-3.9,3.9
		c-1.4-1.2-2.7-2.5-3.9-3.9c-2.6-3.2-4-6.1-4-8.7C4.6,5.5,8.2,2,12.5,2c4.3,0,7.9,3.5,7.9,7.9C20.4,12.5,19,15.4,16.4,18.6z"/>
	<path class="st0" d="M13.1,5.8c-0.3-0.3-0.8-0.3-1.2,0L9.1,8.4C8.9,8.5,8.8,8.8,8.8,9v4.1c0,0.5,0.4,0.9,0.9,0.9h5.6
		c0.5,0,0.9-0.4,0.9-0.9V9c0-0.3-0.1-0.5-0.3-0.7L13.1,5.8z M10.6,12.2V9.4l1.9-1.7l1.9,1.7v2.8H10.6z"/>
</g>
</svg>
