<svg xmlns="http://www.w3.org/2000/svg" width="25" height="25" viewBox="0 0 25 25">
  <path id="Path_45" data-name="Path 45" d="M386.925,297.456a8.348,8.348,0,0,0-13.435,9.513,1.787,1.787,0,0,0-.289.236L365.2,315.21a2.811,2.811,0,0,0,3.976,3.975l8.005-8.006a3.394,3.394,0,0,0,.251-.281,8.35,8.35,0,0,0,9.5-13.443Zm-18.931,20.553a1.175,1.175,0,0,1-1.621,0,1.147,1.147,0,0,1,0-1.621l7.913-7.908c.13.131.3.345.425.5a8.665,8.665,0,0,0,.615.714,4.838,4.838,0,0,0,.528.453Zm17.785-9.887a6.728,6.728,0,1,1,1.972-4.76A6.686,6.686,0,0,1,385.779,308.122Z" transform="translate(-364.373 -295.009)" fill="#707070"/>
</svg>
