<svg xmlns="http://www.w3.org/2000/svg" width="25.103" height="25" viewBox="0 0 25.103 25"><path d="M137.035,56.129l-1.169-.535a1.025,1.025,0,0,1-.534-1.29l.457-1.2a2.874,2.874,0,0,0-.345-2.711,2.933,2.933,0,0,0-2.434-1.281,2.864,2.864,0,0,0-1.049.2l-1.2.457a.865.865,0,0,1-.36.063,1.008,1.008,0,0,1-.913-.591l-.549-1.168a2.938,2.938,0,0,0-2.7-1.739A3.018,3.018,0,0,0,123.5,48.09l-.547,1.163a1.018,1.018,0,0,1-.926.6.914.914,0,0,1-.346-.063l-1.2-.457a2.964,2.964,0,0,0-3.832,3.8l.457,1.2a1.025,1.025,0,0,1-.535,1.28l-1.168.535a2.935,2.935,0,0,0,.048,5.379l1.168.535a1.024,1.024,0,0,1,.535,1.289l-.448,1.207a2.882,2.882,0,0,0,.345,2.713,2.944,2.944,0,0,0,3.482,1.085l1.2-.457a.866.866,0,0,1,.358-.063,1,1,0,0,1,.926.6l.535,1.168a2.959,2.959,0,0,0,5.387,0l.549-1.175a1.016,1.016,0,0,1,.926-.6.913.913,0,0,1,.358.063l1.2.472a2.88,2.88,0,0,0,3.488-1.091,2.965,2.965,0,0,0,.345-2.726l-.469-1.2a1.026,1.026,0,0,1,.534-1.28l1.169-.535v-.01a2.959,2.959,0,0,0,0-5.387Zm-.875,3.624-1.16.538a2.96,2.96,0,0,0-1.542,3.733l.457,1.2a.971.971,0,0,1-.114.926.988.988,0,0,1-1.2.372l-1.2-.457a2.93,2.93,0,0,0-3.733,1.547l-.535,1.168a1.012,1.012,0,0,1-1.843-.007l-.544-1.16a2.973,2.973,0,0,0-2.7-1.737,2.815,2.815,0,0,0-1.04.195l-1.2.457a1.052,1.052,0,0,1-1.2-.372.979.979,0,0,1-.114-.926l.457-1.2a2.974,2.974,0,0,0-1.533-3.735l-1.166-.54a1.017,1.017,0,0,1,0-1.854l1.168-.535a2.958,2.958,0,0,0,1.542-3.733l-.457-1.2a.978.978,0,0,1,.114-.926.99.99,0,0,1,1.2-.372l1.2.457a2.926,2.926,0,0,0,3.732-1.553l.534-1.168a1.03,1.03,0,0,1,1.864.007l.525,1.16a2.982,2.982,0,0,0,2.7,1.758,2.852,2.852,0,0,0,1.039-.195l1.2-.457a1.035,1.035,0,0,1,1.2.372.966.966,0,0,1,.114.926l-.457,1.2a2.979,2.979,0,0,0,1.542,3.724l1.168.535h-.015a1.017,1.017,0,0,1,0,1.851Z" transform="translate(-113.668 -46.332)"/><path d="M122.038,51.85a2.817,2.817,0,1,0,2.819,2.816h0A2.817,2.817,0,0,0,122.038,51.85Z" transform="translate(-109.493 -42.176)"/></svg>