<svg xmlns="http://www.w3.org/2000/svg" width="45" height="45" viewBox="0 0 45 45"><g transform="translate(-275 -735)"><path d="M80.7,16.574l-1.411-.646a3.6,3.6,0,0,1-1.863-4.5l.552-1.452a1.172,1.172,0,0,0-.138-1.119,1.254,1.254,0,0,0-1.452-.449l-1.454.552a3.423,3.423,0,0,1-1.255.235A3.6,3.6,0,0,1,70.421,7.07l-.634-1.4a1.244,1.244,0,0,0-2.253-.009L66.89,7.07a3.534,3.534,0,0,1-4.509,1.876l-1.454-.552a1.2,1.2,0,0,0-1.452.449,1.178,1.178,0,0,0-.138,1.119l.552,1.454a3.575,3.575,0,0,1-1.863,4.511l-1.411.646a1.228,1.228,0,0,0,0,2.24l1.409.652a3.6,3.6,0,0,1,1.862,4.511l-.552,1.454a1.178,1.178,0,0,0,.138,1.119A1.258,1.258,0,0,0,60.923,27l1.454-.552a3.425,3.425,0,0,1,1.257-.235,3.6,3.6,0,0,1,3.256,2.1l.657,1.4a1.223,1.223,0,0,0,2.227.009l.646-1.411a3.54,3.54,0,0,1,4.511-1.869l1.454.552a1.2,1.2,0,0,0,1.452-.449,1.178,1.178,0,0,0,.138-1.119l-.552-1.454a3.575,3.575,0,0,1,1.863-4.511l1.4-.65a1.23,1.23,0,0,0,.009-2.236Zm-12.029,6.22a5.1,5.1,0,1,1,5.1-5.1A5.12,5.12,0,0,1,68.668,22.794Z" transform="translate(228.834 739.807)"/><path d="M64.132,10.472v.011a2.688,2.688,0,1,0,0-.011Z" transform="translate(233.37 744.324)"/><path d="M72.946-.514a22.5,22.5,0,1,0,22.5,22.5A22.5,22.5,0,0,0,72.946-.514ZM85.94,25.217l-1.4.643A1.232,1.232,0,0,0,83.9,27.4l.563,1.445a3.561,3.561,0,0,1-.414,3.274,3.458,3.458,0,0,1-4.189,1.31l-1.445-.567a1.1,1.1,0,0,0-.43-.076,1.22,1.22,0,0,0-1.112.718l-.659,1.411a3.553,3.553,0,0,1-6.469,0l-.643-1.4a1.2,1.2,0,0,0-1.112-.718,1.035,1.035,0,0,0-.43.076l-1.445.549a3.461,3.461,0,0,1-1.267.234,3.525,3.525,0,0,1-2.921-1.537,3.456,3.456,0,0,1-.414-3.258l.549-1.444a1.23,1.23,0,0,0-.643-1.548l-1.4-.643a3.524,3.524,0,0,1-.058-6.46l1.4-.643A1.231,1.231,0,0,0,62,16.582l-.549-1.445a3.561,3.561,0,0,1,4.6-4.559l1.445.549a1.092,1.092,0,0,0,.416.076,1.222,1.222,0,0,0,1.112-.718l.657-1.4a3.623,3.623,0,0,1,3.294-2.111,3.529,3.529,0,0,1,3.233,2.088l.659,1.4a1.209,1.209,0,0,0,1.1.709A1.043,1.043,0,0,0,78.4,11.1l1.445-.549a3.461,3.461,0,0,1,1.265-.236,3.532,3.532,0,0,1,2.923,1.539,3.458,3.458,0,0,1,.414,3.256L83.9,16.555a1.23,1.23,0,0,0,.641,1.55l1.4.643a3.553,3.553,0,0,1,0,6.469Z" transform="translate(224.554 735.514)"/></g></svg>