<svg xmlns="http://www.w3.org/2000/svg" width="25" height="24.04" viewBox="0 0 25 24.04"><path d="M141.554,100.074h-5.626a1.125,1.125,0,0,0,0,2.25h5.632a1.124,1.124,0,0,0,1.125-1.125v-.006A1.125,1.125,0,0,0,141.554,100.074Z" transform="translate(-131.198 -87.757)"/><path d="M146.02,96.731a1.126,1.126,0,0,0-1.092-1.159h-9a1.126,1.126,0,0,0,0,2.251h9A1.125,1.125,0,0,0,146.02,96.731Z" transform="translate(-131.369 -87.045)"/><path d="M148.277,92.231a1.126,1.126,0,0,0-1.092-1.159H135.928a1.126,1.126,0,0,0,0,2.251h11.257A1.125,1.125,0,0,0,148.277,92.231Z" transform="translate(-131.522 -86.333)"/><path d="M140.883,102.752h-.005a.963.963,0,0,0-.963.961,3.845,3.845,0,1,1-7.69,0V87.367h15.387v14.424h1.923V86.4a.962.962,0,0,0-.961-.961H131.262a.963.963,0,0,0-.961.963v17.307a5.769,5.769,0,0,0,5.769,5.769h13.463a5.767,5.767,0,0,0,5.768-5.769.962.962,0,0,0-.961-.961Z" transform="translate(-130.301 -85.443)"/></svg>