<svg xmlns="http://www.w3.org/2000/svg" width="45.353" height="45.353" viewBox="0 0 45.353 45.353"><path d="M49.814,17.691A22.676,22.676,0,1,0,72.491,40.367,22.678,22.678,0,0,0,49.814,17.691Zm9.807,36.743H43.868a6.752,6.752,0,0,1-6.752-6.752V27.427A1.126,1.126,0,0,1,38.242,26.3H58.5a1.126,1.126,0,0,1,1.125,1.125V45.433h-2.25V28.552H39.367v19.13a4.5,4.5,0,1,0,9,0A1.126,1.126,0,0,1,49.5,46.557H65.249a1.126,1.126,0,0,1,1.125,1.125A6.751,6.751,0,0,1,59.622,54.434ZM42.743,38.68a1.126,1.126,0,0,1,0-2.251h9a1.126,1.126,0,0,1,0,2.251ZM49.5,42.056a1.125,1.125,0,0,1-1.127,1.125H42.743a1.125,1.125,0,1,1,0-2.25h5.626A1.125,1.125,0,0,1,49.5,42.056ZM42.743,34.18a1.126,1.126,0,0,1,0-2.251H54a1.126,1.126,0,0,1,0,2.251Z" transform="translate(-27.138 -17.691)"/></svg>